# xmcd CD database file
#
# Track frame offsets:
#	150
#	20726
#	51342
#	70901
#	101793
#	122466
#	149946
#	170303
#	201110
#	223110
#	251867
#	276075
#	292153
#
# Disc length: 4158 seconds
#
# Revision: 5
# Processed by: cddbd v1.5.2PL0 Copyright (c) Steve Scherf et al.
# Submitted via: CDex 1.51
#
DISCID=dd103c0d
DTITLE=Michael Coleman and The Delmark All-Stars - Blues Brunch At The Mart
DYEAR=2006
DGENRE=Blues
TTITLE0=Knockin' On Your Door - Little Arthur Duncan
TTITLE1=The Sky Is Crying - Michael Coleman
TTITLE2=I Need You So Bad - Lurrie Bell
TTITLE3=Reconsider Baby - Lurrie Bell
TTITLE4=Something New - Willie Kent
TTITLE5=Sad and Evil Woman - Bonnie Lee
TTITLE6=My Little Playhouse - Steve Freund
TTITLE7=Toxic - Zora Young
TTITLE8=Memories Of Albert Ammons - Steve Behr
TTITLE9=As The Years Go Passing By - Shirley Johnson
TTITLE10=Be Careful - Tail Dragger
TTITLE11=Wading In Deep Water - Aaron Moore
TTITLE12=You're Going To Miss Me - Michael Coleman
EXTD=YEAR: 2006
EXTT0=
EXTT1=
EXTT2=
EXTT3=
EXTT4=
EXTT5=
EXTT6=
EXTT7=
EXTT8=
EXTT9=
EXTT10=
EXTT11=
EXTT12=
PLAYORDER=
